# xmcd CD database file
#
# Track frame offsets:
#	150
#	25385
#	39833
#	56735
#	72825
#	93803
#	120365
#	128408
#	157038
#	185848
#	200940
#	219430
#	235355
#	246800
#	262803
#	291235
#	307473
#	318425
#
# Disc length: 4374 seconds
#
# Revision: 0
# Processed by: cddbd v1.5.1PL0 Copyright (c) Steve Scherf et al.
# Submitted via: CDex 1.51
#
DISCID=0b111412
DTITLE=Various Artist - Sound Concierge #401 Do Not Disturb
DYEAR=2004
DGENRE=Electronic
TTITLE0=Daddy's Delight (FPM Talker Vocal Mix)
TTITLE1=Something
TTITLE2=Climb
TTITLE3=Eple
TTITLE4=Literature Is Fluff
TTITLE5=A Love Song
TTITLE6=La Sombra
TTITLE7=Moments In Love (Beaten)
TTITLE8=Natural Born Dub (Riverside Christmas Remix)
TTITLE9=Love To Share
TTITLE10=Komm Und Spiel Mit Mir
TTITLE11=Pranto De Poeta
TTITLE12=Sentimental Walk
TTITLE13=Strange Fruit
TTITLE14=Brazilian Suite
TTITLE15=Baby
TTITLE16=If You Don't Want My Love
TTITLE17=Girl In Black-Tango (Para Mi Negra)
EXTD=YEAR: 2004
EXTT0=
EXTT1=
EXTT2=
EXTT3=
EXTT4=
EXTT5=
EXTT6=
EXTT7=
EXTT8=
EXTT9=
EXTT10=
EXTT11=
EXTT12=
EXTT13=
EXTT14=
EXTT15=
EXTT16=
EXTT17=
PLAYORDER=
